<mxfile host="drawio-plugin" modified="2021-05-21T08:31:55.820Z" agent="5.0 (Macintosh; Intel Mac OS X 11_3_1) AppleWebKit/537.36 (KHTML, like Gecko) Chrome/87.0.4280.141 Safari/537.36" version="14.6.6" etag="-nHD02mvP5p0TFBaCSjp" type="embed"><diagram id="XHefL9Jy-OuIyHpCQK-P" name="Page-1"><mxGraphModel dx="1686" dy="779" grid="1" gridSize="10" guides="1" tooltips="1" connect="1" arrows="1" fold="1" page="1" pageScale="1" pageWidth="850" pageHeight="1100" math="0" shadow="0"><root><mxCell id="0"/><mxCell id="1" parent="0"/><mxCell id="2" value="" style="dashed=0;outlineConnect=0;html=1;align=center;labelPosition=center;verticalLabelPosition=bottom;verticalAlign=top;shape=mxgraph.weblogos.github" vertex="1" parent="1"><mxGeometry x="160" y="170" width="120" height="120" as="geometry"/></mxCell></root></mxGraphModel></diagram></mxfile>